# xmcd
#
# Track frame offsets: 
#        150
#        12880
#        30278
#        52098
#        77940
#        95821
#        120022
#        145497
#        162700
#        192419
#        214341
#        241468
#        253266
#        275436
#        298034
#
# Disc length: 4383 seconds
#
# Revision: 0
# Processed by: cddbd v1.5.2PL0 Copyright (c) Steve Scherf et al.
# Submitted via: ExactAudioCopy v0.99pb5
#
DISCID=e4111d0f
DTITLE=Rory Gallagher - Big Guns The Very Best Of
DYEAR=2009
DGENRE=Blues
TTITLE0=What's Going On
TTITLE1=Big Guns
TTITLE2=Tattoo'd Lady
TTITLE3=Sinnerboy
TTITLE4=Bad Penny
TTITLE5=Calling Card
TTITLE6=I'm Not Awake Yet
TTITLE7=Out On The Western Plain
TTITLE8=A Million Miles Away
TTITLE9=Kickback City
TTITLE10=Daughter Of The Everglades
TTITLE11=The Loop
TTITLE12=Shadow Play
TTITLE13=Goin' To My Hometown
TTITLE14=Bullfrog Blues
EXTD=
EXTT0=
EXTT1=
EXTT2=
EXTT3=
EXTT4=
EXTT5=
EXTT6=
EXTT7=
EXTT8=
EXTT9=
EXTT10=
EXTT11=
EXTT12=
EXTT13=
EXTT14=
PLAYORDER=
